<svg width="512" height="512" viewBox="0 0 512 512" fill="none" xmlns="http://www.w3.org/2000/svg">
<rect x="7.5" y="7.5" width="497" height="497" rx="92.5" fill="#A7AFD3" stroke="#A7AFD3" stroke-width="15"/>
<path d="M59.798 348V161.12H112.022C124.31 161.12 134.977 163.509 144.022 168.288C153.067 172.896 160.065 179.467 165.014 188C170.134 196.533 172.694 206.603 172.694 218.208V290.656C172.694 302.091 170.134 312.16 165.014 320.864C160.065 329.568 153.067 336.309 144.022 341.088C134.977 345.696 124.31 348 112.022 348H59.798ZM87.446 322.912H112.022C122.262 322.912 130.283 320.096 136.086 314.464C142.059 308.661 145.046 300.725 145.046 290.656V218.208C145.046 208.309 142.059 200.544 136.086 194.912C130.283 189.109 122.262 186.208 112.022 186.208H87.446V322.912ZM200.754 394.08V368.48H236.082C245.469 368.48 252.807 365.92 258.098 360.8C263.389 355.68 266.034 348.427 266.034 339.04V232.544H208.434V207.2H293.682V339.296C293.682 356.192 288.562 369.504 278.322 379.232C268.082 389.131 254.258 394.08 236.85 394.08H200.754ZM278.578 182.88C272.605 182.88 267.826 181.344 264.242 178.272C260.658 175.029 258.866 170.763 258.866 165.472C258.866 160.011 260.658 155.744 264.242 152.672C267.826 149.429 272.605 147.808 278.578 147.808C284.551 147.808 289.33 149.429 292.914 152.672C296.498 155.744 298.29 160.011 298.29 165.472C298.29 170.763 296.498 175.029 292.914 178.272C289.33 181.344 284.551 182.88 278.578 182.88ZM396.75 350.56C389.923 350.56 384.462 348.597 380.366 344.672C376.27 340.576 374.222 335.115 374.222 328.288C374.222 321.291 376.27 315.744 380.366 311.648C384.462 307.381 389.923 305.248 396.75 305.248C403.747 305.248 409.209 307.381 413.134 311.648C417.23 315.744 419.278 321.291 419.278 328.288C419.278 335.115 417.23 340.576 413.134 344.672C409.209 348.597 403.747 350.56 396.75 350.56Z" fill="#1E1E1E"/>
</svg>
